<svg xmlns="http://www.w3.org/2000/svg" width="60" height="60" viewBox="0 0 60 60"><rect width="100%" height="100%" fill="#198754"/><path fill="#ffffff" d="M31.955 20.13h2.74v19.52h-3.2V27.04q0-.76.08-1.63l-5.9 11.08q-.42.8-1.28.8h-.52q-.86 0-1.28-.8l-5.97-11.12q.04.44.07.87.03.44.03.8v12.61h-3.2V20.13h2.74q.24 0 .42.01.17.02.31.07.15.05.26.18.12.12.22.32l5.85 10.84q.23.43.42.89.2.46.39.95.19-.5.39-.97t.43-.9l5.77-10.81q.1-.2.23-.32.12-.13.26-.18t.32-.07q.17-.01.42-.01m14.52 0v12.58q0 1.65-.4 2.97-.41 1.32-1.21 2.26-.81.93-2.01 1.43t-2.79.5q-.73 0-1.43-.09t-1.47-.28q.04-.54.09-1.08l.1-1.08q.04-.3.23-.48.2-.18.56-.18.23 0 .6.09.37.1.94.1.77 0 1.36-.22.6-.23 1-.71.39-.49.6-1.26.2-.78.2-1.89V20.13z"/></svg>