<svg xmlns="http://www.w3.org/2000/svg" width="600" height="400" viewBox="0 0 600 400"><rect width="100%" height="100%" fill="#ffffff"/><path fill="#0d6efd" d="m144 185.05-1.74 3.3q-.31.55-.66.79-.35.25-.87.25-.55 0-1.19-.4-.63-.4-1.52-.9-.88-.49-2.06-.9-1.19-.4-2.8-.4-1.46 0-2.55.35t-1.83.98q-.74.62-1.11 1.49-.36.87-.36 1.91 0 1.33.74 2.21.74.89 1.96 1.51 1.23.63 2.79 1.12t3.19 1.05q1.64.56 3.2 1.3t2.78 1.87q1.23 1.14 1.97 2.77.74 1.64.74 3.98 0 2.55-.87 4.77-.87 2.23-2.55 3.88t-4.1 2.6q-2.41.95-5.53.95-1.8 0-3.54-.35-1.74-.36-3.34-1.01t-3-1.56q-1.41-.91-2.5-2.02l2.05-3.36q.26-.36.68-.61t.88-.25q.65 0 1.41.54.75.53 1.79 1.18t2.43 1.18q1.39.54 3.34.54 2.99 0 4.63-1.42t1.64-4.07q0-1.48-.74-2.42-.74-.93-1.96-1.57-1.23-.64-2.79-1.08t-3.17-.96-3.17-1.25-2.78-1.9-1.97-2.92q-.74-1.76-.74-4.33 0-2.06.82-4.01t2.38-3.45q1.56-1.51 3.85-2.42t5.25-.91q3.33 0 6.14 1.04t4.78 2.91m30.47 2.03h-16.69v10.42h13.16v5.39h-13.16v10.63h16.69v5.59h-23.71v-37.6h23.71zm42.05 13.23q0 4.14-1.37 7.66-1.36 3.52-3.86 6.1-2.5 2.57-6.01 4.01-3.51 1.45-7.8 1.45-4.26 0-7.77-1.45-3.51-1.44-6.02-4.01-2.51-2.58-3.89-6.1-1.37-3.52-1.37-7.66 0-4.13 1.37-7.66 1.38-3.52 3.89-6.09 2.51-2.58 6.02-4.02t7.77-1.44q2.86 0 5.39.66 2.52.66 4.62 1.87 2.11 1.21 3.79 2.94 1.67 1.73 2.84 3.86t1.78 4.63q.62 2.5.62 5.25m-7.15 0q0-3.09-.84-5.55-.83-2.46-2.36-4.17-1.54-1.72-3.73-2.63-2.2-.91-4.96-.91-2.75 0-4.95.91t-3.74 2.63q-1.55 1.71-2.38 4.17t-.83 5.55q0 3.1.83 5.55.83 2.46 2.38 4.16 1.54 1.71 3.74 2.62t4.95.91q2.76 0 4.96-.91 2.19-.91 3.73-2.62 1.53-1.7 2.36-4.16.84-2.45.84-5.55m59.33 0q0 4.14-1.38 7.59-1.38 3.46-3.87 5.96-2.5 2.49-6.01 3.87t-7.8 1.38h-14.33v-37.6h14.33q4.29 0 7.8 1.39 3.51 1.4 6.01 3.88 2.49 2.48 3.87 5.94t1.38 7.59m-7.18 0q0-3.09-.82-5.55t-2.36-4.16q-1.55-1.7-3.75-2.61-2.19-.91-4.95-.91h-7.31v26.47h7.31q2.76 0 4.95-.91 2.2-.91 3.75-2.62 1.54-1.7 2.36-4.16.82-2.45.82-5.55m26.42 11.91v-4.5q-2.78.13-4.68.48t-3.04.9q-1.15.55-1.64 1.27-.5.73-.5 1.59 0 1.69 1 2.42 1.01.73 2.62.73 1.97 0 3.42-.72 1.44-.71 2.82-2.17m-13.57-14.01-1.15-2.06q4.6-4.21 11.08-4.21 2.34 0 4.18.77 1.85.76 3.12 2.13 1.28 1.36 1.94 3.26t.66 4.16v16.85h-2.91q-.91 0-1.4-.27-.5-.28-.78-1.11l-.57-1.92q-1.02.91-1.98 1.6t-2 1.15q-1.04.47-2.23.72-1.18.25-2.61.25-1.69 0-3.12-.46-1.43-.45-2.47-1.36t-1.61-2.27q-.57-1.35-.57-3.14 0-1.02.34-2.02.33-1 1.1-1.91t1.99-1.71q1.22-.81 3-1.41t4.15-.97q2.37-.38 5.41-.46v-1.56q0-2.68-1.15-3.96-1.14-1.29-3.3-1.29-1.56 0-2.59.36-1.02.37-1.8.82-.78.46-1.42.82-.64.37-1.42.37-.67 0-1.14-.36-.47-.35-.75-.81m43.6-2.89-1.46 2.31q-.26.42-.54.59-.29.17-.73.17-.47 0-1-.26-.54-.26-1.24-.59-.7-.32-1.6-.58-.89-.26-2.12-.26-1.89 0-2.97.8-1.08.81-1.08 2.11 0 .86.56 1.44.56.59 1.48 1.03t2.09.79 2.38.77 2.38.95 2.09 1.35q.93.82 1.48 1.96.56 1.15.56 2.76 0 1.92-.69 3.55-.68 1.62-2.04 2.81-1.35 1.18-3.34 1.84-1.99.67-4.59.67-1.37 0-2.69-.25-1.31-.25-2.52-.69t-2.24-1.04q-1.02-.6-1.8-1.3l1.48-2.44q.29-.45.68-.68t.98-.23q.6 0 1.13.33.54.34 1.24.73t1.65.73 2.41.34q1.14 0 1.96-.28.82-.27 1.35-.71t.78-1.03q.25-.58.25-1.21 0-.93-.56-1.53t-1.48-1.04q-.93-.44-2.11-.79t-2.42-.77q-1.23-.42-2.42-.98-1.18-.55-2.1-1.41t-1.48-2.11-.56-3.01q0-1.64.65-3.12.65-1.49 1.91-2.59 1.26-1.11 3.14-1.77 1.89-.66 4.36-.66 2.76 0 5.02.91t3.77 2.39m11.54-14.85v14.82q1.56-1.45 3.43-2.36 1.88-.91 4.4-.91 2.18 0 3.87.74t2.82 2.08 1.72 3.2q.58 1.86.58 4.09v16.98h-6.42v-16.98q0-2.44-1.12-3.78-1.11-1.34-3.4-1.34-1.67 0-3.12.75-1.46.76-2.76 2.06v19.29h-6.42v-38.64zm29.33 19.76v11.96q1.09 1.33 2.38 1.88 1.29.54 2.72.54 1.48 0 2.66-.53t2.02-1.67q.83-1.13 1.27-2.88.44-1.76.44-4.2 0-4.39-1.45-6.36-1.46-1.96-4.19-1.96-1.85 0-3.22.84-1.38.85-2.63 2.38m0-19.76v15.24q1.61-1.69 3.57-2.69 1.97-1 4.49-1 2.31 0 4.17.91t3.17 2.61q1.32 1.7 2.02 4.12t.7 5.44q0 3.25-.8 5.9-.81 2.65-2.3 4.53-1.5 1.89-3.61 2.93-2.1 1.04-4.68 1.04-1.24 0-2.26-.25-1.01-.24-1.87-.69-.86-.44-1.57-1.08-.72-.63-1.37-1.41l-.28 1.79q-.16.68-.54.96-.37.29-1.02.29h-4.24v-38.64zm34.89 11.55q2.97 0 5.4.96t4.16 2.73 2.66 4.32q.94 2.54.94 5.69 0 3.17-.94 5.72-.93 2.55-2.66 4.34-1.73 1.8-4.16 2.76t-5.4.96q-2.99 0-5.43-.96-2.45-.96-4.17-2.76-1.73-1.79-2.68-4.34t-.95-5.72q0-3.15.95-5.69.95-2.55 2.68-4.32 1.72-1.77 4.17-2.73 2.44-.96 5.43-.96m0 22.54q3.33 0 4.93-2.24 1.6-2.23 1.6-6.55 0-4.31-1.6-6.58-1.6-2.26-4.93-2.26-3.38 0-5 2.28-1.63 2.27-1.63 6.56t1.63 6.54q1.62 2.25 5 2.25m32.16-2.34v-4.5q-2.78.13-4.68.48-1.89.35-3.04.9-1.14.55-1.64 1.27-.49.73-.49 1.59 0 1.69 1 2.42t2.61.73q1.98 0 3.42-.72 1.45-.71 2.82-2.17m-13.57-14.01-1.14-2.06q4.6-4.21 11.07-4.21 2.34 0 4.19.77 1.85.76 3.12 2.13 1.27 1.36 1.94 3.26.66 1.9.66 4.16v16.85h-2.91q-.91 0-1.41-.27-.49-.28-.78-1.11l-.57-1.92q-1.01.91-1.97 1.6-.97.69-2.01 1.15-1.04.47-2.22.72t-2.61.25q-1.69 0-3.12-.46-1.43-.45-2.47-1.36t-1.61-2.27q-.58-1.35-.58-3.14 0-1.02.34-2.02t1.11-1.91q.76-.91 1.99-1.71 1.22-.81 3-1.41t4.15-.97q2.36-.38 5.4-.46v-1.56q0-2.68-1.14-3.96-1.14-1.29-3.3-1.29-1.56 0-2.59.36-1.03.37-1.81.82-.78.46-1.41.82-.64.37-1.42.37-.68 0-1.14-.36-.47-.35-.76-.81m31.54-4.16.39 3.01q1.25-2.39 2.96-3.76 1.72-1.36 4.06-1.36 1.85 0 2.96.81l-.41 4.81q-.13.46-.38.66-.25.19-.66.19-.39 0-1.16-.13t-1.49-.13q-1.07 0-1.9.32-.83.31-1.5.89-.66.59-1.17 1.42-.5.83-.95 1.9v16.43h-6.42v-26.68h3.77q.99 0 1.38.35.39.36.52 1.27m30.47 17.16v-11.96q-1.09-1.33-2.38-1.88-1.28-.54-2.77-.54-1.45 0-2.62.54-1.17.55-2 1.65-.84 1.11-1.28 2.81-.44 1.71-.44 4.02 0 2.34.38 3.97.37 1.62 1.08 2.65.7 1.02 1.71 1.48 1.02.45 2.26.45 2.01 0 3.41-.83t2.65-2.36m0-30.74h6.42v38.64h-3.92q-1.28 0-1.61-1.17l-.55-2.57q-1.61 1.84-3.7 2.99-2.1 1.14-4.88 1.14-2.18 0-4-.91t-3.14-2.64q-1.31-1.73-2.02-4.28-.72-2.54-.72-5.82 0-2.96.81-5.51.8-2.55 2.31-4.42t3.61-2.93q2.11-1.05 4.74-1.05 2.23 0 3.82.7 1.58.7 2.83 1.9z"/></svg>